<svg width="1099" height="633" viewBox="0 0 1099 633" fill="none" xmlns="http://www.w3.org/2000/svg">
<g clip-path="url(#clip0_66_199)">
<path d="M549.375 617.37C852.786 617.37 1098.75 603.224 1098.75 585.774C1098.75 568.323 852.786 554.177 549.375 554.177C245.964 554.177 0 568.323 0 585.774C0 603.224 245.964 617.37 549.375 617.37Z" fill="#F2F2F2"/>
<path d="M1000.28 64H174.967V90.257H1000.28V64Z" fill="#F2F2F2"/>
<path d="M197.053 83.537C200.806 83.537 203.848 80.4945 203.848 76.7415C203.848 72.9885 200.806 69.946 197.053 69.946C193.3 69.946 190.257 72.9885 190.257 76.7415C190.257 80.4945 193.3 83.537 197.053 83.537Z" fill="#1CE5E9"/>
<path d="M219.138 83.537C222.891 83.537 225.933 80.4945 225.933 76.7415C225.933 72.9885 222.891 69.946 219.138 69.946C215.385 69.946 212.342 72.9885 212.342 76.7415C212.342 80.4945 215.385 83.537 219.138 83.537Z" fill="#1CE5E9"/>
<path d="M241.223 83.537C244.976 83.537 248.019 80.4945 248.019 76.7415C248.019 72.9885 244.976 69.946 241.223 69.946C237.47 69.946 234.428 72.9885 234.428 76.7415C234.428 80.4945 237.47 83.537 241.223 83.537Z" fill="#1CE5E9"/>
<path d="M175.552 400.277L174.967 400.779V577.903H1000.28V266.779L990.449 267.525L175.552 400.277Z" fill="#1A202A"/>
<path d="M999.415 266.984L1000 266.484V90L175 90V400L184.832 399.257L999.415 266.984Z" fill="white"/>
<path d="M464.999 239.641H234.529V248.934H464.999V239.641Z" fill="#3F3D56"/>
<path d="M464.999 260.086H234.529V269.379H464.999V260.086Z" fill="#3F3D56"/>
<path d="M312.591 280.531H234.529V289.824H312.591V280.531Z" fill="#3F3D56"/>
<path d="M934.999 418.641H704.529V427.934H934.999V418.641Z" fill="white"/>
<path d="M934.999 439.086H704.529V448.379H934.999V439.086Z" fill="white"/>
<path d="M782.591 459.531H704.529V468.824H782.591V459.531Z" fill="white"/>
<path d="M561.335 569.335C566.342 569.335 570.401 565.276 570.401 560.269C570.401 555.262 566.342 551.203 561.335 551.203C556.328 551.203 552.27 555.262 552.27 560.269C552.27 565.276 556.328 569.335 561.335 569.335Z" fill="#F2F2F2"/>
<path d="M587.626 570.241C592.633 570.241 596.692 566.183 596.692 561.176C596.692 556.169 592.633 552.11 587.626 552.11C582.619 552.11 578.561 556.169 578.561 561.176C578.561 566.183 582.619 570.241 587.626 570.241Z" fill="#F2F2F2"/>
<path d="M613.917 571.148C618.924 571.148 622.983 567.089 622.983 562.082C622.983 557.075 618.924 553.017 613.917 553.017C608.91 553.017 604.852 557.075 604.852 562.082C604.852 567.089 608.91 571.148 613.917 571.148Z" fill="#F2F2F2"/>
<path d="M587.71 568.428C591.715 568.428 594.962 565.181 594.962 561.176C594.962 557.17 591.715 553.923 587.71 553.923C583.704 553.923 580.457 557.17 580.457 561.176C580.457 565.181 583.704 568.428 587.71 568.428Z" fill="#3F3D56"/>
<path d="M389.063 346H311V363.81H389.063V346Z" fill="#3F3D56"/>
<path d="M852.591 508.014H774.529V525.824H852.591V508.014Z" fill="white"/>
<path opacity="0.3" d="M350 409.014C379.823 409.014 404 384.837 404 355.014C404 325.19 379.823 301.014 350 301.014C320.177 301.014 296 325.19 296 355.014C296 384.837 320.177 409.014 350 409.014Z" fill="#1CE5E9"/>
<path opacity="0.3" d="M350 391.014C369.882 391.014 386 374.896 386 355.014C386 335.131 369.882 319.014 350 319.014C330.118 319.014 314 335.131 314 355.014C314 374.896 330.118 391.014 350 391.014Z" fill="#1CE5E9"/>
<path d="M350 380.014C363.807 380.014 375 368.821 375 355.014C375 341.207 363.807 330.014 350 330.014C336.193 330.014 325 341.207 325 355.014C325 368.821 336.193 380.014 350 380.014Z" fill="#1CE5E9"/>
<path opacity="0.3" d="M804.375 275.185C834.198 275.185 858.375 251.009 858.375 221.185C858.375 191.362 834.198 167.185 804.375 167.185C774.552 167.185 750.375 191.362 750.375 221.185C750.375 251.009 774.552 275.185 804.375 275.185Z" fill="#1CE5E9"/>
<path opacity="0.3" d="M804.375 257.185C824.257 257.185 840.375 241.068 840.375 221.185C840.375 201.303 824.257 185.185 804.375 185.185C784.493 185.185 768.375 201.303 768.375 221.185C768.375 241.068 784.493 257.185 804.375 257.185Z" fill="#1CE5E9"/>
<path d="M804.375 246.185C818.182 246.185 829.375 234.992 829.375 221.185C829.375 207.378 818.182 196.185 804.375 196.185C790.568 196.185 779.375 207.378 779.375 221.185C779.375 234.992 790.568 246.185 804.375 246.185Z" fill="#1CE5E9"/>
<path opacity="0.3" d="M814 571.014C843.823 571.014 868 546.837 868 517.014C868 487.19 843.823 463.014 814 463.014C784.177 463.014 760 487.19 760 517.014C760 546.837 784.177 571.014 814 571.014Z" fill="#1CE5E9"/>
<path opacity="0.3" d="M814 553.014C833.882 553.014 850 536.896 850 517.014C850 497.131 833.882 481.014 814 481.014C794.118 481.014 778 497.131 778 517.014C778 536.896 794.118 553.014 814 553.014Z" fill="#1CE5E9"/>
<path d="M814 542.014C827.807 542.014 839 530.821 839 517.014C839 503.207 827.807 492.014 814 492.014C800.193 492.014 789 503.207 789 517.014C789 530.821 800.193 542.014 814 542.014Z" fill="#1CE5E9"/>
<path d="M963.222 548.769C975.532 569.762 1000.36 578.073 1000.36 578.073C1000.36 578.073 1005.23 552.349 992.918 531.356C980.608 510.364 955.781 502.053 955.781 502.053C955.781 502.053 950.913 527.777 963.222 548.769Z" fill="#F2F2F2"/>
<path d="M970.903 541.443C992.192 553.233 1001.11 577.848 1001.11 577.848C1001.11 577.848 975.513 583.347 954.225 571.557C932.936 559.766 924.018 535.151 924.018 535.151C924.018 535.151 949.615 529.652 970.903 541.443Z" fill="#1CE5E9"/>
</g>
<defs>
<clipPath id="clip0_66_199">
<rect width="1098.75" height="632.37" fill="white"/>
</clipPath>
</defs>
</svg>
