<svg width="25" height="25" viewBox="0 0 25 25" fill="none" xmlns="http://www.w3.org/2000/svg">
<path d="M5.81948 8.01526H0.800687C0.577945 8.01526 0.397461 8.19582 0.397461 8.41848V24.5417C0.397461 24.7645 0.577945 24.9449 0.800687 24.9449H5.81948C6.04222 24.9449 6.2227 24.7645 6.2227 24.5417V8.41848C6.2227 8.19582 6.04222 8.01526 5.81948 8.01526Z" fill="white" fill-opacity="0.5"/>
<path d="M3.31177 0C1.48565 0 0 1.48403 0 3.30815C0 5.13306 1.48565 6.61766 3.31177 6.61766C5.13645 6.61766 6.62089 5.13298 6.62089 3.30815C6.62097 1.48403 5.13645 0 3.31177 0Z" fill="white" fill-opacity="0.5"/>
<path d="M18.5849 7.6145C16.5692 7.6145 15.0791 8.48103 14.1753 9.46563V8.41845C14.1753 8.19579 13.9948 8.01523 13.7721 8.01523H8.96573C8.74298 8.01523 8.5625 8.19579 8.5625 8.41845V24.5417C8.5625 24.7644 8.74298 24.9449 8.96573 24.9449H13.9735C14.1963 24.9449 14.3768 24.7644 14.3768 24.5417V16.5644C14.3768 13.8763 15.1069 12.829 16.9808 12.829C19.0216 12.829 19.1838 14.5079 19.1838 16.7027V24.5418C19.1838 24.7645 19.3643 24.945 19.587 24.945H24.5967C24.8194 24.945 24.9999 24.7645 24.9999 24.5418V15.6979C24.9999 11.7007 24.2377 7.6145 18.5849 7.6145Z" fill="white" fill-opacity="0.5"/>
</svg>
