<svg width="25" height="21" viewBox="0 0 25 21" fill="none" xmlns="http://www.w3.org/2000/svg">
<path d="M24.4335 2.36221C24.0408 2.53638 23.637 2.6834 23.2244 2.80278C23.7129 2.25034 24.0853 1.60034 24.3126 0.889062C24.3636 0.729639 24.3108 0.555127 24.1797 0.45083C24.0488 0.346484 23.867 0.333984 23.7229 0.419385C22.8466 0.939062 21.9013 1.31255 20.9101 1.53091C19.9116 0.555273 18.5555 0 17.1536 0C14.1943 0 11.7867 2.40752 11.7867 5.3667C11.7867 5.59975 11.8015 5.83154 11.8307 6.06011C8.15852 5.73769 4.74455 3.93276 2.40022 1.05703C2.31667 0.954541 2.18796 0.899268 2.05617 0.909863C1.92434 0.920166 1.80583 0.994531 1.73923 1.10884C1.26374 1.92471 1.01237 2.85786 1.01237 3.80732C1.01237 5.10049 1.47404 6.32739 2.28962 7.28613C2.04162 7.20024 1.801 7.09292 1.57131 6.96543C1.44802 6.89678 1.29753 6.89785 1.17502 6.96806C1.05246 7.03833 0.975607 7.16748 0.972335 7.30869C0.971749 7.33247 0.971749 7.35625 0.971749 7.38037C0.971749 9.31059 2.01062 11.0484 3.59895 11.9956C3.46247 11.982 3.32614 11.9622 3.19065 11.9363C3.05095 11.9096 2.90734 11.9586 2.81316 12.0651C2.71882 12.1716 2.68757 12.32 2.73108 12.4555C3.31897 14.291 4.83259 15.641 6.66242 16.0526C5.14475 17.0032 3.4092 17.5011 1.58728 17.5011C1.2071 17.5011 0.824777 17.4788 0.450607 17.4345C0.264718 17.4124 0.0869839 17.5222 0.0236539 17.699C-0.0396762 17.8758 0.0274625 18.073 0.185568 18.1744C2.52614 19.6751 5.23249 20.4683 8.01193 20.4683C13.4759 20.4683 16.8941 17.8917 18.7993 15.7302C21.1752 13.0349 22.5377 9.46743 22.5377 5.94253C22.5377 5.79526 22.5355 5.64658 22.5309 5.49834C23.4683 4.79214 24.2753 3.93745 24.9319 2.95513C25.0317 2.80596 25.0209 2.60874 24.9053 2.47144C24.7901 2.33389 24.5977 2.28945 24.4335 2.36221Z" fill="white" fill-opacity="0.5"/>
</svg>
